<?xml version="1.0" standalone="no"?><!DOCTYPE svg PUBLIC "-//W3C//DTD SVG 1.1//EN" "http://www.w3.org/Graphics/SVG/1.1/DTD/svg11.dtd"><svg t="1606801779662" class="icon" viewBox="0 0 1024 1024" version="1.1" xmlns="http://www.w3.org/2000/svg" p-id="1162" width="32" height="32" xmlns:xlink="http://www.w3.org/1999/xlink"><defs><style type="text/css"></style></defs><path d="M603.136 195.84a34.005333 34.005333 0 0 1-33.92-33.92c0-18.645333 15.189333-33.92 33.92-33.92h237.610667c18.730667 0 33.92 15.274667 33.92 33.92v237.610667a34.005333 34.005333 0 0 1-33.92 33.92 34.005333 34.005333 0 0 1-33.962667-33.92V243.712L627.2 423.594667a33.962667 33.962667 0 1 1-48-48.213334l179.626667-179.498666h-155.648z m-441.173333 373.333333c18.730667 0 33.92 15.317333 33.92 33.962667v155.818667l179.626666-179.882667a33.962667 33.962667 0 1 1 48 48.213333l-179.626666 179.498667h155.648a34.005333 34.005333 0 0 1 0 67.84l-237.610667 0.042667A34.005333 34.005333 0 0 1 128 840.746667v-237.610667c0-18.645333 15.189333-33.92 33.92-33.92z" fill="#2c2c2c" p-id="1163"></path></svg>