<?xml version="1.0" standalone="no"?><!DOCTYPE svg PUBLIC "-//W3C//DTD SVG 1.1//EN" "http://www.w3.org/Graphics/SVG/1.1/DTD/svg11.dtd"><svg t="1606801990996" class="icon" viewBox="0 0 1024 1024" version="1.1" xmlns="http://www.w3.org/2000/svg" p-id="5440" xmlns:xlink="http://www.w3.org/1999/xlink" width="32" height="32"><defs><style type="text/css"></style></defs><path d="M946.8 883.1L786.2 722.5c55.5-69.4 88.9-157.2 88.9-252.9C875 245.6 693.5 64 469.5 64S64 245.6 64 469.5 245.6 875 469.5 875c95.7 0 183.6-33.4 252.9-88.9L883 946.7c17.6 17.6 46.1 17.6 63.7 0 17.7-17.5 17.7-46 0.1-63.6z m-477.3-98.2c-174.2 0-315.4-141.2-315.4-315.4s141.2-315.4 315.4-315.4 315.4 141.2 315.4 315.4-141.2 315.4-315.4 315.4z" fill="#ffffff" p-id="5441"></path></svg>