<?xml version="1.0" encoding="UTF-8"?>
<svg width="424px" height="319px" viewBox="0 0 424 319" version="1.1" xmlns="http://www.w3.org/2000/svg" xmlns:xlink="http://www.w3.org/1999/xlink">
    <!-- Generator: Sketch 49 (51002) - http://www.bohemiancoding.com/sketch -->
    <title>Artboard 2 Copy 2</title>
    <desc>Created with Sketch.</desc>
    <defs>
        <path d="M2.15299958,20.5594622 C0.721824503,26.7750941 0,33.1341056 0,39.514079 L0,62.8857939 L42.389726,62.8857939 L42.389726,7.41633129 L6.88477541,0 L2.15299958,20.5594622 Z" id="path-1"></path>
        <path d="M33.7107026,13.9994875 C21.8822392,13.9994875 9.73528511,9.26363231 0.521622695,1.60220056 C10.5971329,21.2738942 12.9385835,28.3518752 11.8811272,30.5325326 C10.5971329,33.1776201 8.02830827,33.8393081 8.02830827,33.8393081 C8.6669617,34.1048156 9.27719338,34.4468958 9.83559716,34.8871889 C13.8104624,38.0241727 23.0040624,42.885707 40.1315102,40.4520267 C52.2333239,38.7324702 57.0123574,33.3807042 58.874818,29.8450429 C59.531026,28.6007365 60.5558809,27.6402485 61.7638052,27.0476423 C59.0545437,24.9901671 56.3954383,22.4416279 57.4662695,19.2896624 C59.1239262,14.4114819 61.3667366,7.4633415 61.9167811,0.636718663 C55.5712076,8.859961 46.0256794,13.9994875 33.7107026,13.9994875 Z" id="path-3"></path>
        <path d="M43.6143953,0.952301118 C17.2187516,3.3515063 -2.21128815,26.4560157 0.216349532,52.5563034 C2.6404119,78.6565911 26.4698746,102.863857 52.8655183,100.465512 C79.2602682,98.0654464 98.2281987,69.9679733 95.800561,43.8676856 C93.5114667,19.2437656 72.5869461,0.75 48.0629788,0.75 C46.5926312,0.75 45.1079824,0.817146754 43.6143953,0.952301118 Z" id="path-5"></path>
        <path d="M126.994981,15.6113138 C125.806027,15.701716 125.350676,15.7539717 124.668801,16.0870303 C123.297056,16.7660198 122.658466,17.2224083 122.071889,18.329581 C120.1325,21.8731937 113.463158,27.8310067 102.652566,29.3602735 C87.3539228,31.5251547 79.1426705,27.2003387 75.5919919,24.409736 C75.0933195,24.0189692 74.5494627,23.7139402 73.9793167,23.4781611 C72.5966716,22.9052013 71.0620424,22.8359515 69.5693115,23.1286144 C8.18414162,35.1772581 0,125.246538 0,125.246538 C0,125.246538 46.1821289,136.855689 46.1821289,136.855689 C46.1821289,136.855689 44.1090893,166.118769 44.9667729,181.059417 C46.0774896,200.445243 43.1076369,222.906916 42.5251679,237.153417 C42.2055904,244.953914 48.1370803,245.758531 48.7458385,250.545837 C50.0997298,249.883017 51.5061995,249.241632 52.9463521,248.615086 C91.1576345,232.017389 158.102138,228.170727 168.603012,227.603538 C179.498222,227.015739 169.176444,204.073439 167.455326,184.072608 C165.735029,164.071777 169.176444,121.716446 173.189647,102.304238 C176.720609,85.2300364 203.318658,63.1525353 209.676525,58.0791618 C210.502991,57.4204641 210.829962,56.3025742 210.495597,55.2852614 C209.358591,51.8301902 206.763359,44.0494787 205.877743,40.005784 C204.7317,32.3017419 203.002367,28.8384267 201.291107,22.8887132 C198.681909,13.8235825 196.891782,4.76834452 195.219956,1.49381748 C194.940634,0.946414162 194.680207,0.449299406 194.438676,0 C188.301802,3.49381814 176.822479,7.20280534 160.000708,11.1244884 C142.306466,15.2489745 126.765722,15.6113138 126.994981,15.6113138 Z" id="path-7"></path>
    </defs>
    <g id="Artboard-2-Copy-2" stroke="none" stroke-width="1" fill="none" fill-rule="evenodd">
        <g id="Group-22-Copy-3" transform="translate(111.000000, 52.000000)">
            <g id="Group-22-Copy-6">
                <g id="Group-18">
                    <g id="Group-22-Copy-5">
                        <g id="Page-1-Copy-3">
                            <g id="Group-3" transform="translate(5.531915, 208.529248)">
                                <mask id="mask-2" fill="white">
                                    <use xlink:href="#path-1"></use>
                                </mask>
                                <g id="Clip-2"></g>
                                <polygon id="Fill-1" fill="#FFC2C2" mask="url(#mask-2)" points="-4.15797525 67.0781801 46.5477013 67.0781801 46.5477013 -4.19238626 -4.15797525 -4.19238626"></polygon>
                            </g>
                            <g id="Group-6" transform="translate(63.617021, 79.983287)">
                                <mask id="mask-4" fill="white">
                                    <use xlink:href="#path-3"></use>
                                </mask>
                                <g id="Clip-5"></g>
                                <polygon id="Fill-4" fill="#FFC2C2" mask="url(#mask-4)" points="0.835933806 44.2440401 64.9462052 44.2440401 64.9462052 -0.832311978 0.835933806 -0.832311978"></polygon>
                            </g>
                            <g id="Group-9" transform="translate(43.943262, 0.000000)">
                                <mask id="mask-6" fill="white">
                                    <use xlink:href="#path-5"></use>
                                </mask>
                                <g id="Clip-8"></g>
                                <polygon id="Fill-7" fill="#342D71" mask="url(#mask-6)" points="-3 104.485326 96.1182664 104.485326 96.1182664 0.889817394 -3 0.889817394"></polygon>
                            </g>
                            <g id="Group-20" transform="translate(105.106383, 30.969359)">
                                <path d="M1.28693526,21.7699309 C1.69806247,22.8857933 2.81197827,23.6058372 3.95637845,23.8987922 C5.09995473,24.1917472 6.29873246,24.1349666 7.47773653,24.1604767 C11.5090901,24.2493507 15.5132549,25.3454632 19.0354368,27.3245554 C20.6758262,28.2462116 22.2461838,29.3925215 23.281005,30.9725035 C23.4836849,31.2827396 23.7061385,31.7419219 23.9030512,32.2702284 C24.5465188,34.0016254 24.8950294,36.5016178 23.2488728,37.1607666 C21.9232141,37.3854203 20.5827252,37.1122151 19.8395654,37.0348618 C18.621014,36.9089569 17.4065822,36.6530328 16.295962,36.1132056 C13.7014939,34.8516886 11.9037392,32.1788857 8.68145767,32.0727306 C7.28,32.0266478 5.95763694,32.9096274 5.63137166,34.2847055 C5.04310548,36.7558962 7.43818923,36.5740337 8.35354459,38.8238623 C8.72594839,39.7397581 9.3957809,40.8440998 9.83904029,41.7287251 C10.7197918,43.488101 12.8042644,44.6788479 14.7297239,45.0137712 C16.0743323,45.2482997 17.4181168,45.4811825 18.7619013,45.7157111 C20.02,45.9337815 21.275627,46.1526749 22.5329018,46.3715682 C24.7450792,46.7566889 28.3290539,46.5805867 30.4728474,45.9140318 C33.68689,44.9150223 35.9213128,43.2527495 39.0892168,42.129481 C40.3333092,41.6892256 41.6515527,41.4785613 42.9706202,41.4892591 C50.3964509,41.5452168 57.3073427,42.7491302 64.7241105,42.9680236 C76.5808873,43.3177592 88.927062,43.3918208 101.07962,48.060997 C101.07962,48.060997 94.1250611,52.6536427 89.3686736,56.211894 C89.4535355,56.3674235 84.2868447,67.0166672 84.7086827,67.8313454 C87.8049072,71.7854151 82.6818832,78.1596552 84.7086827,86.5064042 C86.4355817,92.4074726 98.9860842,91.3442763 98.5980263,97.0108162 C98.5980263,97.029743 100.912368,95.8801415 100.912368,95.8998913 C103.294269,93.9594758 120.583033,79.8877606 139.728049,64.5578201 C144.207605,60.9699441 148.04287,56.6093582 150.905106,51.6134879 C153.665179,46.7961884 155.788375,41.0440662 153.864563,36.6085958 C149.813436,27.2718893 133.031372,20.2681251 94.8360887,20.2681251 C56.6416297,20.2681251 48.5401992,20.8523893 36.9660208,9.76371309 C32.5218923,5.5059906 28.4163875,1.3807562 21.848239,0.653306123 C19.607225,0.497776639 18.7907379,1.06722851 16.8249072,2.15840362 C15.5025441,2.89325986 13.4361974,2.86528101 10.1043368,3.47011789 C9.38918968,3.60013725 8.28680851,4.01735126 7.63922137,4.34898291 C7.44230874,4.45020051 7.2412766,4.54894939 7.03282933,4.64687536 C4.36585785,5.8993403 3.6762517,6.05980723 2.25502037,8.96137845 C1.65933907,10.1792813 1.4129923,11.8950431 0.737392485,13.5449722 C0.67971933,13.6823978 0.0560253508,15.5561577 0.0865097329,15.7026352 C0.259529199,16.7674773 1.88508828,19.2312618 5.72364871,15.2541507 C6.44456315,14.3851606 7.10533273,12.7599187 8.19782707,12.2340809 C9.19969217,11.7526801 10.9134088,11.4350379 12.0232051,11.4119965 C15.748067,11.3329974 18.873952,13.3927344 21.9784156,15.4722212 C22.4826437,15.8096132 23.0017021,16.2449312 23.3263196,16.7518421 C23.6641195,17.2768569 23.1986148,17.9475264 22.5930466,17.7944657 C19.9153644,17.1180358 17.2706383,16.4004606 14.5641195,16.024392 C12.3675962,15.7199163 10.1183431,15.6524379 7.92923495,15.9667885 C7.92923495,15.9667885 2.54585785,16.4819285 1.40722499,19.4740195 C1.09496605,20.2080528 1.01257583,21.0276685 1.28693526,21.7699309 Z" id="Fill-10" fill="#FFA9C7"></path>
                                <path d="M1.40722499,19.4740195 C1.09496605,20.2080528 1.01257583,21.0276685 1.28693526,21.7699309 C1.69806247,22.8857933 2.81197827,23.6058372 3.95637845,23.8987922 C5.09995473,24.1917472 6.29873246,24.1349666 7.47773653,24.1604767 C11.5090901,24.2493507 15.5132549,25.3454632 19.0354368,27.3245554 C20.6758262,28.2462116 22.2461838,29.3925215 23.281005,30.9725035 C23.4836849,31.2827396 23.7061385,31.7419219 23.9030512,32.2702284 C24.5465188,34.0016254 24.8950294,36.5016178 23.2488728,37.1607666 C21.9232141,37.3854203 20.5827252,37.1122151 19.8395654,37.0348618 C18.621014,36.9089569 17.4065822,36.6530328 16.295962,36.1132056 C13.7014939,34.8516886 11.9037392,32.1788857 8.68145767,32.0727306 C7.28,32.0266478 5.95763694,32.9096274 5.63137166,34.2847055 C5.04310548,36.7558962 7.43818923,36.5740337 8.35354459,38.8238623 C8.72594839,39.7397581 9.3957809,40.8440998 9.83904029,41.7287251 C10.7197918,43.488101 12.8042644,44.6788479 14.7297239,45.0137712 C16.0743323,45.2482997 17.4181168,45.4811825 18.7619013,45.7157111 C20.02,45.9337815 21.275627,46.1526749 22.5329018,46.3715682 C24.7450792,46.7566889 28.3290539,46.5805867 30.4728474,45.9140318 C33.68689,44.9150223 35.9213128,43.2527495 39.0892168,42.129481 C40.3333092,41.6892256 41.6515527,41.4785613 42.9706202,41.4892591 C50.3964509,41.5452168 57.3073427,42.7491302 64.7241105,42.9680236 C76.5808873,43.3177592 88.927062,43.3918208 101.07962,48.060997 C101.07962,48.060997 94.1250611,52.6536427 89.3686736,56.211894 C89.4535355,56.3674235 84.2868447,67.0166672 84.7086827,67.8313454 C87.8049072,71.7854151 82.6818832,78.1596552 84.7086827,86.5064042 C86.4355817,92.4074726 98.9860842,91.3442763 98.5980263,97.0108162 C98.5980263,97.029743 100.912368,95.8801415 100.912368,95.8998913 C103.294269,93.9594758 120.583033,79.8877606 139.728049,64.5578201 C144.207605,60.9699441 148.04287,56.6093582 150.905106,51.6134879 C153.665179,46.7961884 155.788375,41.0440662 153.864563,36.6085958 C149.813436,27.2718893 133.031372,20.2681251 94.8360887,20.2681251 C56.6416297,20.2681251 48.5401992,20.8523893 36.9660208,9.76371309 C32.5218923,5.5059906 28.4163875,1.3807562 21.848239,0.653306123 C19.607225,0.497776639 18.7907379,1.06722851 16.8249072,2.15840362 C15.5025441,2.89325986 13.4361974,2.86528101 10.1043368,3.47011789 C9.38918968,3.60013725 8.28680851,4.01735126 7.63922137,4.34898291 C7.44230874,4.45020051 7.2412766,4.54894939 7.03282933,4.64687536 C4.36585785,5.8993403 3.6762517,6.05980723 2.25502037,8.96137845 C1.65933907,10.1792813 1.4129923,11.8950431 0.737392485,13.5449722 C0.67971933,13.6823978 0.0560253508,15.5561577 0.0865097329,15.7026352 C0.259529199,16.7674773 1.88508828,19.2312618 5.72364871,15.2541507 C6.44456315,14.3851606 7.10533273,12.7599187 8.19782707,12.2340809 C9.19969217,11.7526801 10.9134088,11.4350379 12.0232051,11.4119965 C15.748067,11.3329974 18.873952,13.3927344 21.9784156,15.4722212 C22.4826437,15.8096132 23.0017021,16.2449312 23.3263196,16.7518421 C23.6641195,17.2768569 23.1986148,17.9475264 22.5930466,17.7944657 C19.9153644,17.1180358 17.2706383,16.4004606 14.5641195,16.024392 C12.3675962,15.7199163 10.1183431,15.6524379 7.92923495,15.9667885 C7.92923495,15.9667885 2.54585785,16.4819285 1.40722499,19.4740195" id="Fill-10" fill="#FFC2C2"></path>
                                <path d="M9.54004617,36.1982119 L8.71284835,35.30042 C7.89883296,34.4157946 6.51962064,34.3581911 5.63474966,35.1720465 C5.60756089,35.1975566 5.58778723,35.2271812 5.56224627,35.2535143 C5.75421548,36.7520285 7.5799828,36.9215474 8.35362698,38.8232862 C8.46402988,39.0964915 8.60491716,39.3869778 8.75486736,39.6815786 C8.98967949,39.5869442 9.2137809,39.4552791 9.41234133,39.2734166 C10.2980362,38.4595612 10.3548855,37.0828373 9.54004617,36.1982119" id="Fill-12" fill="#FFFFFF" opacity="0.650000036"></path>
                                <path d="M1.63577546,15.1601747 L2.3566899,13.5160059 C2.60056496,12.9597206 2.34680308,12.3120925 1.78984518,12.0685119 C1.57233499,11.9722318 1.48747306,11.9500133 1.27161068,11.9960961 C1.19745948,12.4997154 0.945345405,13.035428 0.736898144,13.5448077 C0.682520598,13.6764728 0.112380263,15.3897659 0.0926066093,15.6596795 C0.1263866,15.6794293 0.149455862,15.7098768 0.18570756,15.7255121 C0.742665459,15.9690926 1.39190041,15.7156372 1.63577546,15.1601747" id="Fill-14" fill="#FFFFFF" opacity="0.650000036"></path>
                                <path d="M5.31293345,16.6037188 C4.31765957,16.9880165 1.62514713,17.7631952 2.01073336,20.2442608 C2.23153916,20.8762536 2.62948393,21.2465619 3.05132187,21.1264174 L5.16545496,20.5224034 C5.74548212,20.3569991 6.14425079,19.3308336 6.05774106,18.2289607 C5.99512449,17.4332093 5.69357628,16.8217892 5.31293345,16.6037188 Z" id="Fill-16" fill="#FFFFFF" opacity="0.650000036"></path>
                                <path d="M15.9829615,11.7362219 C14.8154921,12.4875363 13.2368954,13.3079749 12.3948674,13.3079749 C10.7470629,13.3079749 9.41234133,11.9740422 9.41234133,10.3290504 C9.41234133,8.68405868 10.7470629,7.35012591 12.3948674,7.35012591 C14.0418479,7.35012591 15.3773934,8.68405868 15.3773934,10.3290504 C15.3773934,11.132208 16.6091272,11.3321744 15.9829615,11.7362219 Z" id="Fill-18" fill="#FFC2C2"></path>
                            </g>
                            <g id="Group-23" transform="translate(0.000000, 87.381616)">
                                <mask id="mask-8" fill="white">
                                    <use xlink:href="#path-7"></use>
                                </mask>
                                <g id="Clip-22"></g>
                                <polygon id="Fill-21" fill="#5752CD" mask="url(#mask-8)" points="-4.10768 254.66785 214.733079 254.66785 214.733079 -4.1220129 -4.10768 -4.1220129"></polygon>
                            </g>
                        </g>
                    </g>
                </g>
            </g>
        </g>
    </g>
</svg>